<svg width="189" height="60" viewBox="0 0 189 60" fill="none" xmlns="http://www.w3.org/2000/svg">
<path d="M72.2604 23.6605C74.3237 23.6605 76.1155 24.0026 77.6358 24.6875C79.1568 25.3723 80.3292 26.3503 81.155 27.6221C81.9802 28.8932 82.3931 30.3877 82.3931 32.1049C82.3931 33.8221 81.9802 35.3105 81.155 36.5716C80.3292 37.832 79.1568 38.8046 77.6358 39.4895C76.1155 40.1743 74.3237 40.5164 72.2604 40.5164H68.2853V46.4829H61.8341V23.6605H72.2604ZM71.8689 35.4299C73.1942 35.4299 74.193 35.1422 74.8667 34.566C75.5397 33.9904 75.8768 33.1701 75.8768 32.1049C75.8768 31.0397 75.5397 30.214 74.8667 29.627C74.193 29.0401 73.1942 28.7463 71.8689 28.7463H68.2853V35.4299H71.8689ZM104.027 28.8121L96.4031 47.2C95.5122 49.3733 94.4263 50.9007 93.1453 51.7807C91.8636 52.6608 90.2997 53.1008 88.4529 53.1008C87.5192 53.1008 86.58 52.9546 85.6349 52.6608C84.6897 52.3677 83.9242 51.982 83.3376 51.5037L85.4881 47.1671C85.836 47.4931 86.2542 47.7487 86.7429 47.9338C87.2316 48.1183 87.7256 48.2109 88.225 48.2109C88.8116 48.2109 89.2949 48.0908 89.6749 47.852C90.055 47.6132 90.3755 47.2329 90.6362 46.711L83.0769 28.8121H89.4309L93.764 39.6035L98.1298 28.8121H104.027ZM114.421 46.7761C112.466 46.7761 110.717 46.385 109.175 45.6022C107.633 44.8201 106.433 43.7334 105.575 42.3423C104.717 40.9511 104.288 39.3754 104.288 37.6146C104.288 35.8539 104.717 34.2836 105.575 32.9038C106.433 31.5233 107.633 30.4474 109.175 29.676C110.717 28.904 112.466 28.5183 114.421 28.5183C116.419 28.5183 118.146 28.9476 119.601 29.8061C121.057 30.6647 122.088 31.8547 122.696 33.376L117.907 35.8217C117.103 34.2346 115.93 33.4417 114.388 33.4417C113.28 33.4417 112.362 33.8107 111.635 34.5499C110.907 35.2891 110.544 36.3107 110.544 37.6146C110.544 38.9408 110.907 39.9784 111.635 40.7284C112.362 41.4783 113.28 41.8533 114.388 41.8533C115.93 41.8533 117.103 41.0597 117.907 39.4734L122.696 41.9183C122.088 43.4396 121.057 44.6296 119.601 45.4882C118.146 46.3468 116.419 46.7761 114.421 46.7761ZM134.849 37.7454H131.917V46.4829H125.498V23.6605H131.917V32.5288H135.012L140.453 23.6605H147.23L140.095 34.6807L147.295 46.4829H140.03L134.849 37.7454ZM157.428 46.7761C155.538 46.7761 153.834 46.385 152.313 45.6022C150.792 44.8201 149.603 43.7334 148.745 42.3423C147.887 40.9511 147.458 39.3754 147.458 37.6146C147.458 35.876 147.887 34.3111 148.745 32.9199C149.603 31.5287 150.787 30.4474 152.297 29.676C153.806 28.904 155.517 28.5183 157.428 28.5183C159.34 28.5183 161.056 28.904 162.576 29.676C164.097 30.4474 165.28 31.5233 166.128 32.9038C166.975 34.2836 167.399 35.8539 167.399 37.6146C167.399 39.3754 166.975 40.9511 166.128 42.3423C165.28 43.7334 164.097 44.8201 162.576 45.6022C161.056 46.385 159.34 46.7761 157.428 46.7761ZM157.428 41.8533C158.515 41.8533 159.405 41.4783 160.1 40.7284C160.795 39.9784 161.142 38.9408 161.142 37.6146C161.142 36.3107 160.795 35.2891 160.1 34.5499C159.405 33.8107 158.515 33.4417 157.428 33.4417C156.342 33.4417 155.452 33.8107 154.757 34.5499C154.062 35.2891 153.714 36.3107 153.714 37.6146C153.714 38.9408 154.062 39.9784 154.757 40.7284C155.452 41.4783 156.342 41.8533 157.428 41.8533ZM170.298 28.8121H176.456V35.3649H182.809V28.8121H189V46.4829H182.809V40.2883H176.456V46.4829H170.298V28.8121Z" fill="white"/>
<path d="M61.7556 17.4699V9.00945H67.1873V10.5737H63.4851V17.4699H61.7556ZM73.343 11.926C73.9282 12.5538 74.2205 13.342 74.2205 14.2911C74.2205 15.2396 73.9282 16.0325 73.343 16.669C72.7578 17.3056 72.0258 17.6242 71.1456 17.6242C70.3513 17.6242 69.7199 17.3673 69.25 16.8548V19.7774H67.5205V11.1244H69.1092V11.9193C69.5449 11.2954 70.2233 10.9835 71.1456 10.9835C72.0258 10.9835 72.7578 11.2975 73.343 11.926ZM72.4655 14.3039C72.4655 13.7827 72.312 13.3594 72.0043 13.0348C71.6967 12.7101 71.3038 12.5478 70.8259 12.5478C70.3647 12.5478 69.9819 12.7014 69.679 13.0093C69.376 13.3165 69.2245 13.7438 69.2245 14.2911C69.2245 14.8378 69.376 15.2671 69.679 15.579C69.9819 15.8909 70.3647 16.0472 70.8259 16.0472C71.2951 16.0472 71.6859 15.8849 71.9976 15.5602C72.3093 15.2356 72.4655 14.8163 72.4655 14.3039ZM79.6522 11.1244H81.4714L78.4348 18.0213C78.1446 18.6793 77.7987 19.1623 77.3972 19.4702C76.9963 19.7774 76.5009 19.9317 75.9117 19.9317C75.5531 19.9317 75.181 19.88 74.7969 19.7774V18.3292C75.1469 18.3634 75.3949 18.3802 75.5397 18.3802C75.8648 18.3802 76.1296 18.3164 76.334 18.1877C76.5391 18.0595 76.7141 17.8375 76.8596 17.5216L77.0519 17.0856L74.6173 11.1244H76.4493L77.9998 15.2906L79.6522 11.1244ZM82.5218 17.4699V11.1244H88.2224V17.4699H86.4929V12.586H84.2386V17.4699H82.5218ZM90.0162 17.4699V11.1244H95.7167V17.4699H93.9872V12.586H91.7329V17.4699H90.0162ZM102.788 13.7015V17.4699H101.2V16.8548C100.705 17.3673 100.06 17.6242 99.2654 17.6242C98.5991 17.6242 98.0675 17.4485 97.6707 17.0983C97.2732 16.7482 97.0747 16.2907 97.0747 15.7266C97.0747 15.1537 97.2906 14.703 97.7216 14.3743C98.1526 14.045 98.7358 13.8806 99.4705 13.8806H101.059V13.5989C101.059 13.24 100.959 12.9643 100.758 12.7718C100.557 12.5793 100.264 12.4834 99.8801 12.4834C99.5644 12.4834 99.2781 12.5518 99.0221 12.6886C98.7653 12.8255 98.4925 13.0475 98.2023 13.3554L97.3053 12.2909C98.04 11.4195 98.9617 10.9835 100.072 10.9835C100.909 10.9835 101.571 11.221 102.058 11.6952C102.545 12.1695 102.788 12.8382 102.788 13.7015ZM101.059 15.0987V15.0216H99.7011C99.1112 15.0216 98.8169 15.2356 98.8169 15.6629C98.8169 15.8762 98.9001 16.0452 99.067 16.1686C99.2332 16.2927 99.4531 16.3544 99.7266 16.3544C100.111 16.3544 100.429 16.237 100.681 16.0023C100.933 15.7675 101.059 15.4657 101.059 15.0987ZM114.356 17.4699H112.307L109.796 14.1114V17.4699H108.079V11.1244H109.796V14.0859L112.191 11.1244H114.151L111.756 14.0215L114.356 17.4699ZM114.766 14.2911C114.749 13.3849 115.078 12.6028 115.753 11.9448C116.427 11.2867 117.23 10.9668 118.161 10.9835C119.092 10.9668 119.897 11.2867 120.576 11.9448C121.255 12.6028 121.585 13.3849 121.569 14.2911C121.585 15.1967 121.252 15.9808 120.569 16.6435C119.886 17.3056 119.079 17.6282 118.148 17.6108C117.218 17.6282 116.417 17.3056 115.746 16.6435C115.076 15.9808 114.749 15.1967 114.766 14.2911ZM119.333 15.5341C119.645 15.2094 119.801 14.7996 119.801 14.3039C119.801 13.8082 119.645 13.3936 119.333 13.0603C119.021 12.7269 118.631 12.5605 118.161 12.5605C117.683 12.5605 117.29 12.7249 116.982 13.0536C116.675 13.3829 116.521 13.7995 116.521 14.3039C116.521 14.7996 116.675 15.2094 116.982 15.5341C117.29 15.8594 117.683 16.0217 118.161 16.0217C118.631 16.0217 119.021 15.8594 119.333 15.5341ZM122.952 17.4699V10.9835H123.516L126.488 14.3039L129.485 10.9835H130.036V17.4699H128.307V14.4192L126.77 16.1498H126.193L124.669 14.432V17.4699H122.952ZM131.83 17.4699V11.1244H137.531V17.4699H135.801V12.586H133.546V17.4699H131.83ZM144.602 13.7015V17.4699H143.013V16.8548C142.519 17.3673 141.874 17.6242 141.079 17.6242C140.413 17.6242 139.881 17.4485 139.484 17.0983C139.087 16.7482 138.889 16.2907 138.889 15.7266C138.889 15.1537 139.104 14.703 139.536 14.3743C139.967 14.045 140.55 13.8806 141.284 13.8806H142.872V13.5989C142.872 13.24 142.773 12.9643 142.571 12.7718C142.371 12.5793 142.078 12.4834 141.694 12.4834C141.378 12.4834 141.092 12.5518 140.836 12.6886C140.579 12.8255 140.306 13.0475 140.016 13.3554L139.119 12.2909C139.853 11.4195 140.776 10.9835 141.886 10.9835C142.723 10.9835 143.385 11.221 143.872 11.6952C144.359 12.1695 144.602 12.8382 144.602 13.7015ZM142.872 15.0987V15.0216H141.515C140.925 15.0216 140.631 15.2356 140.631 15.6629C140.631 15.8762 140.714 16.0452 140.881 16.1686C141.047 16.2927 141.267 16.3544 141.541 16.3544C141.925 16.3544 142.243 16.237 142.495 16.0023C142.746 15.7675 142.872 15.4657 142.872 15.0987ZM146.306 17.4699V11.1244H148.023V13.4446H150.367V11.1244H152.083V17.4699H150.367V14.919H148.023V17.4699H146.306ZM159.142 10.9835H159.706V17.4699H157.976V14.0349L154.44 17.6242H153.877V11.1244H155.593V14.5856L159.142 10.9835ZM166.764 10.9835H167.328V17.4699H165.599V14.0349L162.063 17.6242H161.5V11.1244H163.216V14.5856L166.764 10.9835ZM162.345 7.92011V7.56058H163.729V7.9067C163.729 8.23202 163.801 8.48155 163.946 8.65662C164.091 8.83237 164.296 8.91957 164.561 8.91957C164.826 8.91957 165.031 8.83237 165.176 8.65662C165.321 8.48155 165.394 8.23202 165.394 7.9067V7.56058H166.764V7.92011C166.764 8.57814 166.559 9.1161 166.15 9.53534C165.739 9.94518 165.21 10.1504 164.561 10.1504C163.903 10.1504 163.37 9.94518 162.96 9.53534C162.55 9.1161 162.345 8.57814 162.345 7.92011Z" fill="white"/>
<path d="M0 46.4286L7.24092 50.4674V42.7454L23.4368 51.5855V27.9186L0 14.8465V46.4286ZM7.24092 26.5951L16.9131 31.8842V40.3326L7.24092 35.0449V26.5951Z" fill="white"/>
<path d="M51.3548 27.7482V14.8465L43.0795 19.4621H23.7887L33.4837 24.8149L27.9193 27.9186V59.5L51.3548 46.4286V36.198L45.0081 39.6672V42.7454L35.3339 48.0338V31.8842L45.0081 26.5951V31.2188L51.3548 27.7482Z" fill="white"/>
<path d="M18.3671 4.55014L7.65787 10.5542L18.3671 16.4678V4.55014Z" fill="white"/>
<path d="M25.7608 0.5V13.4493L48.8196 13.4245L25.7608 0.5Z" fill="white"/>
</svg>
