<svg width="15" height="11" viewBox="0 0 15 11" fill="none" xmlns="http://www.w3.org/2000/svg">
<path fill-rule="evenodd" clip-rule="evenodd" d="M1.87419 4.92827C2.43743 4.25613 3.26617 3.38562 4.25894 2.68814C5.25601 1.98763 6.36351 1.5 7.5 1.5C8.63649 1.5 9.74399 1.98763 10.7411 2.68814C11.7338 3.38562 12.5626 4.25613 13.1258 4.92827C13.3329 5.17543 13.4318 5.29678 13.4907 5.39511C13.5277 5.45705 13.5277 5.4742 13.5277 5.49799L13.5277 5.5L13.5277 5.50201C13.5277 5.5258 13.5277 5.54295 13.4907 5.60489C13.4318 5.70322 13.3329 5.82457 13.1258 6.07173C12.5626 6.74387 11.7338 7.61438 10.7411 8.31186C9.74399 9.01237 8.63649 9.5 7.5 9.5C6.36351 9.5 5.25601 9.01237 4.25894 8.31186C3.26617 7.61438 2.43743 6.74387 1.87419 6.07173C1.66707 5.82457 1.56816 5.70322 1.50935 5.60489C1.4723 5.54295 1.47232 5.5258 1.47235 5.50201L1.47235 5.5L1.47235 5.49799C1.47232 5.4742 1.4723 5.45705 1.50935 5.39511C1.56816 5.29678 1.66707 5.17543 1.87419 4.92827ZM7.5 0C5.95375 0 4.55491 0.658111 3.42307 1.4533C2.28692 2.25152 1.36419 3.22666 0.75441 3.95433L0.687985 4.03314C0.367488 4.41232 0 4.84709 0 5.5C0 6.15291 0.367487 6.58768 0.687985 6.96686L0.75441 7.04567C1.36419 7.77334 2.28692 8.74848 3.42307 9.5467C4.55491 10.3419 5.95375 11 7.5 11C9.04625 11 10.4451 10.3419 11.5769 9.5467C12.7131 8.74848 13.6358 7.77334 14.2456 7.04567L14.312 6.96686C14.6325 6.58768 15 6.15291 15 5.5C15 4.84709 14.6325 4.41232 14.312 4.03314L14.2456 3.95433C13.6358 3.22666 12.7131 2.25152 11.5769 1.4533C10.4451 0.658111 9.04625 0 7.5 0ZM9.1385 5.50016C9.1385 6.42064 8.40606 7.16683 7.50256 7.16683C6.59905 7.16683 5.86661 6.42064 5.86661 5.50016C5.86661 4.57969 6.59905 3.8335 7.50256 3.8335C8.40606 3.8335 9.1385 4.57969 9.1385 5.50016ZM10.6108 5.50016C10.6108 7.24906 9.21922 8.66683 7.50256 8.66683C5.7859 8.66683 4.39427 7.24906 4.39427 5.50016C4.39427 3.75126 5.7859 2.3335 7.50256 2.3335C9.21922 2.3335 10.6108 3.75126 10.6108 5.50016Z" fill="#62666E"/>
</svg>
