<svg width="16" height="19" viewBox="0 0 16 19" fill="none" xmlns="http://www.w3.org/2000/svg">
<path fill-rule="evenodd" clip-rule="evenodd" d="M7.11111 2.5C4.16559 2.5 1.77778 5.18629 1.77778 8.5C1.77778 11.8137 4.16559 14.5 7.11111 14.5C10.0566 14.5 12.4444 11.8137 12.4444 8.5C12.4444 5.18629 10.0566 2.5 7.11111 2.5ZM0 8.5C0 4.08172 3.18375 0.5 7.11111 0.5C11.0385 0.5 14.2222 4.08172 14.2222 8.5C14.2222 10.4036 13.6312 12.152 12.6443 13.5255C12.8014 13.5661 12.9506 13.6552 13.073 13.7929L15.7397 16.7929C16.0868 17.1834 16.0868 17.8166 15.7397 18.2071C15.3925 18.5976 14.8297 18.5976 14.4826 18.2071L11.8159 15.2071C11.6935 15.0694 11.6143 14.9016 11.5782 14.7249C10.3573 15.8351 8.80324 16.5 7.11111 16.5C3.18375 16.5 0 12.9183 0 8.5Z" fill="black"/>
</svg>
